<mxfile host="app.diagrams.net" modified="2023-05-03T10:10:37.579Z" agent="Mozilla/5.0 (Windows NT 10.0; Win64; x64; rv:92.0) Gecko/20100101 Firefox/92.0" etag="ha8Pll4ggqX-hionazrz" version="21.2.6" type="device">
  <diagram id="R2lEEEUBdFMjLlhIrx00" name="Page-1">
    <mxGraphModel dx="837" dy="920" grid="1" gridSize="10" guides="1" tooltips="1" connect="1" arrows="1" fold="1" page="1" pageScale="1" pageWidth="850" pageHeight="1100" math="0" shadow="0" extFonts="Permanent Marker^https://fonts.googleapis.com/css?family=Permanent+Marker">
      <root>
        <mxCell id="0" />
        <mxCell id="1" parent="0" />
        <mxCell id="C-vyLk0tnHw3VtMMgP7b-1" value="" style="edgeStyle=entityRelationEdgeStyle;endArrow=ERzeroToMany;startArrow=ERone;endFill=1;startFill=0;entryX=1;entryY=0.593;entryDx=0;entryDy=0;entryPerimeter=0;exitX=0;exitY=0.5;exitDx=0;exitDy=0;" parent="1" source="eLRlmK2aRcmRUZ2P7bwm-23" target="eLRlmK2aRcmRUZ2P7bwm-72" edge="1">
          <mxGeometry width="100" height="100" relative="1" as="geometry">
            <mxPoint x="390" y="50" as="sourcePoint" />
            <mxPoint x="490" y="50" as="targetPoint" />
          </mxGeometry>
        </mxCell>
        <mxCell id="wp8QwnEku8OI3jybZzaY-11" value="1" style="edgeLabel;html=1;align=center;verticalAlign=middle;resizable=0;points=[];" parent="C-vyLk0tnHw3VtMMgP7b-1" vertex="1" connectable="0">
          <mxGeometry x="0.8208" y="-1" relative="1" as="geometry">
            <mxPoint x="2" y="-15" as="offset" />
          </mxGeometry>
        </mxCell>
        <mxCell id="wp8QwnEku8OI3jybZzaY-12" value="n" style="edgeLabel;html=1;align=center;verticalAlign=middle;resizable=0;points=[];" parent="C-vyLk0tnHw3VtMMgP7b-1" vertex="1" connectable="0">
          <mxGeometry x="-0.8576" relative="1" as="geometry">
            <mxPoint x="7" y="5" as="offset" />
          </mxGeometry>
        </mxCell>
        <mxCell id="eLRlmK2aRcmRUZ2P7bwm-1" value="Grundriss" style="shape=table;startSize=30;container=1;collapsible=1;childLayout=tableLayout;fixedRows=1;rowLines=0;fontStyle=1;align=center;resizeLast=1;" parent="1" vertex="1">
          <mxGeometry x="890" y="380" width="250" height="170" as="geometry" />
        </mxCell>
        <mxCell id="eLRlmK2aRcmRUZ2P7bwm-2" value="" style="shape=partialRectangle;collapsible=0;dropTarget=0;pointerEvents=0;fillColor=none;points=[[0,0.5],[1,0.5]];portConstraint=eastwest;top=0;left=0;right=0;bottom=1;" parent="eLRlmK2aRcmRUZ2P7bwm-1" vertex="1">
          <mxGeometry y="30" width="250" height="30" as="geometry" />
        </mxCell>
        <mxCell id="eLRlmK2aRcmRUZ2P7bwm-3" value="PK" style="shape=partialRectangle;overflow=hidden;connectable=0;fillColor=none;top=0;left=0;bottom=0;right=0;fontStyle=1;" parent="eLRlmK2aRcmRUZ2P7bwm-2" vertex="1">
          <mxGeometry width="30" height="30" as="geometry">
            <mxRectangle width="30" height="30" as="alternateBounds" />
          </mxGeometry>
        </mxCell>
        <mxCell id="eLRlmK2aRcmRUZ2P7bwm-4" value="Grundriss_ID int not null" style="shape=partialRectangle;overflow=hidden;connectable=0;fillColor=none;top=0;left=0;bottom=0;right=0;align=left;spacingLeft=6;fontStyle=5;" parent="eLRlmK2aRcmRUZ2P7bwm-2" vertex="1">
          <mxGeometry x="30" width="220" height="30" as="geometry">
            <mxRectangle width="220" height="30" as="alternateBounds" />
          </mxGeometry>
        </mxCell>
        <mxCell id="eLRlmK2aRcmRUZ2P7bwm-5" value="" style="shape=partialRectangle;collapsible=0;dropTarget=0;pointerEvents=0;fillColor=none;points=[[0,0.5],[1,0.5]];portConstraint=eastwest;top=0;left=0;right=0;bottom=0;" parent="eLRlmK2aRcmRUZ2P7bwm-1" vertex="1">
          <mxGeometry y="60" width="250" height="110" as="geometry" />
        </mxCell>
        <mxCell id="eLRlmK2aRcmRUZ2P7bwm-6" value="&#xa;&#xa;&#xa;&#xa;&#xa;&#xa;FK&#xa;" style="shape=partialRectangle;overflow=hidden;connectable=0;fillColor=none;top=0;left=0;bottom=0;right=0;" parent="eLRlmK2aRcmRUZ2P7bwm-5" vertex="1">
          <mxGeometry width="30" height="110" as="geometry">
            <mxRectangle width="30" height="110" as="alternateBounds" />
          </mxGeometry>
        </mxCell>
        <mxCell id="eLRlmK2aRcmRUZ2P7bwm-7" value="Gebäudenummer varchar&#xa;Raumnummer varchar&#xa;Höhe float&#xa;Breite float&#xa;Länge float&#xa;Raumfläche float&#xa;Gebäude_ID int&#xa;&#xa;&#xa;" style="shape=partialRectangle;overflow=hidden;connectable=0;fillColor=none;top=0;left=0;bottom=0;right=0;align=left;spacingLeft=6;" parent="eLRlmK2aRcmRUZ2P7bwm-5" vertex="1">
          <mxGeometry x="30" width="220" height="110" as="geometry">
            <mxRectangle width="220" height="110" as="alternateBounds" />
          </mxGeometry>
        </mxCell>
        <mxCell id="eLRlmK2aRcmRUZ2P7bwm-8" value="Lager" style="shape=table;startSize=30;container=1;collapsible=1;childLayout=tableLayout;fixedRows=1;rowLines=0;fontStyle=1;align=center;resizeLast=1;" parent="1" vertex="1">
          <mxGeometry x="1350" y="30" width="250" height="250" as="geometry" />
        </mxCell>
        <mxCell id="eLRlmK2aRcmRUZ2P7bwm-9" value="" style="shape=partialRectangle;collapsible=0;dropTarget=0;pointerEvents=0;fillColor=none;points=[[0,0.5],[1,0.5]];portConstraint=eastwest;top=0;left=0;right=0;bottom=1;" parent="eLRlmK2aRcmRUZ2P7bwm-8" vertex="1">
          <mxGeometry y="30" width="250" height="30" as="geometry" />
        </mxCell>
        <mxCell id="eLRlmK2aRcmRUZ2P7bwm-10" value="PK" style="shape=partialRectangle;overflow=hidden;connectable=0;fillColor=none;top=0;left=0;bottom=0;right=0;fontStyle=1;" parent="eLRlmK2aRcmRUZ2P7bwm-9" vertex="1">
          <mxGeometry width="30" height="30" as="geometry">
            <mxRectangle width="30" height="30" as="alternateBounds" />
          </mxGeometry>
        </mxCell>
        <mxCell id="eLRlmK2aRcmRUZ2P7bwm-11" value="Lagernummer_ID int not null" style="shape=partialRectangle;overflow=hidden;connectable=0;fillColor=none;top=0;left=0;bottom=0;right=0;align=left;spacingLeft=6;fontStyle=5;" parent="eLRlmK2aRcmRUZ2P7bwm-9" vertex="1">
          <mxGeometry x="30" width="220" height="30" as="geometry">
            <mxRectangle width="220" height="30" as="alternateBounds" />
          </mxGeometry>
        </mxCell>
        <mxCell id="eLRlmK2aRcmRUZ2P7bwm-12" value="" style="shape=partialRectangle;collapsible=0;dropTarget=0;pointerEvents=0;fillColor=none;points=[[0,0.5],[1,0.5]];portConstraint=eastwest;top=0;left=0;right=0;bottom=0;" parent="eLRlmK2aRcmRUZ2P7bwm-8" vertex="1">
          <mxGeometry y="60" width="250" height="190" as="geometry" />
        </mxCell>
        <mxCell id="eLRlmK2aRcmRUZ2P7bwm-13" value="" style="shape=partialRectangle;overflow=hidden;connectable=0;fillColor=none;top=0;left=0;bottom=0;right=0;" parent="eLRlmK2aRcmRUZ2P7bwm-12" vertex="1">
          <mxGeometry width="30" height="190" as="geometry">
            <mxRectangle width="30" height="190" as="alternateBounds" />
          </mxGeometry>
        </mxCell>
        <mxCell id="eLRlmK2aRcmRUZ2P7bwm-14" value="Lagergegenstand varchar&#xa;Stückzahl int&#xa;PreisJeStück float&#xa;Maximalkapazität int&#xa;Lieferzeiten float&#xa;Lieferkosten float&#xa;" style="shape=partialRectangle;overflow=hidden;connectable=0;fillColor=none;top=0;left=0;bottom=0;right=0;align=left;spacingLeft=6;" parent="eLRlmK2aRcmRUZ2P7bwm-12" vertex="1">
          <mxGeometry x="30" width="220" height="190" as="geometry">
            <mxRectangle width="220" height="190" as="alternateBounds" />
          </mxGeometry>
        </mxCell>
        <mxCell id="eLRlmK2aRcmRUZ2P7bwm-15" value="Kundendaten" style="shape=table;startSize=30;container=1;collapsible=1;childLayout=tableLayout;fixedRows=1;rowLines=0;fontStyle=1;align=center;resizeLast=1;" parent="1" vertex="1">
          <mxGeometry x="1360" y="350" width="250" height="250" as="geometry" />
        </mxCell>
        <mxCell id="eLRlmK2aRcmRUZ2P7bwm-16" value="" style="shape=partialRectangle;collapsible=0;dropTarget=0;pointerEvents=0;fillColor=none;points=[[0,0.5],[1,0.5]];portConstraint=eastwest;top=0;left=0;right=0;bottom=1;" parent="eLRlmK2aRcmRUZ2P7bwm-15" vertex="1">
          <mxGeometry y="30" width="250" height="30" as="geometry" />
        </mxCell>
        <mxCell id="eLRlmK2aRcmRUZ2P7bwm-17" value="PK" style="shape=partialRectangle;overflow=hidden;connectable=0;fillColor=none;top=0;left=0;bottom=0;right=0;fontStyle=1;" parent="eLRlmK2aRcmRUZ2P7bwm-16" vertex="1">
          <mxGeometry width="30" height="30" as="geometry">
            <mxRectangle width="30" height="30" as="alternateBounds" />
          </mxGeometry>
        </mxCell>
        <mxCell id="eLRlmK2aRcmRUZ2P7bwm-18" value="Kunden_ID int not null" style="shape=partialRectangle;overflow=hidden;connectable=0;fillColor=none;top=0;left=0;bottom=0;right=0;align=left;spacingLeft=6;fontStyle=5;" parent="eLRlmK2aRcmRUZ2P7bwm-16" vertex="1">
          <mxGeometry x="30" width="220" height="30" as="geometry">
            <mxRectangle width="220" height="30" as="alternateBounds" />
          </mxGeometry>
        </mxCell>
        <mxCell id="eLRlmK2aRcmRUZ2P7bwm-19" value="" style="shape=partialRectangle;collapsible=0;dropTarget=0;pointerEvents=0;fillColor=none;points=[[0,0.5],[1,0.5]];portConstraint=eastwest;top=0;left=0;right=0;bottom=0;" parent="eLRlmK2aRcmRUZ2P7bwm-15" vertex="1">
          <mxGeometry y="60" width="250" height="190" as="geometry" />
        </mxCell>
        <mxCell id="eLRlmK2aRcmRUZ2P7bwm-20" value="FK&#xa;&#xa;&#xa;" style="shape=partialRectangle;overflow=hidden;connectable=0;fillColor=none;top=0;left=0;bottom=0;right=0;" parent="eLRlmK2aRcmRUZ2P7bwm-19" vertex="1">
          <mxGeometry width="30" height="190" as="geometry">
            <mxRectangle width="30" height="190" as="alternateBounds" />
          </mxGeometry>
        </mxCell>
        <mxCell id="eLRlmK2aRcmRUZ2P7bwm-21" value="KundenName varchar&#xa;KundenVorname varchar&#xa;Adress_ID int&#xa;Kundentelefon varchar&#xa;KundenMail varchar&#xa;KundenFax varchar &#xa;KundenSexualtität varchar &#xa;NameDesErstgeborenen varchar" style="shape=partialRectangle;overflow=hidden;connectable=0;fillColor=none;top=0;left=0;bottom=0;right=0;align=left;spacingLeft=6;" parent="eLRlmK2aRcmRUZ2P7bwm-19" vertex="1">
          <mxGeometry x="30" width="220" height="190" as="geometry">
            <mxRectangle width="220" height="190" as="alternateBounds" />
          </mxGeometry>
        </mxCell>
        <mxCell id="eLRlmK2aRcmRUZ2P7bwm-22" value="Auftragsdaten    " style="shape=table;startSize=30;container=1;collapsible=1;childLayout=tableLayout;fixedRows=1;rowLines=0;fontStyle=1;align=center;resizeLast=1;" parent="1" vertex="1">
          <mxGeometry x="1350" y="670" width="250" height="190" as="geometry" />
        </mxCell>
        <mxCell id="eLRlmK2aRcmRUZ2P7bwm-23" value="" style="shape=partialRectangle;collapsible=0;dropTarget=0;pointerEvents=0;fillColor=none;points=[[0,0.5],[1,0.5]];portConstraint=eastwest;top=0;left=0;right=0;bottom=1;" parent="eLRlmK2aRcmRUZ2P7bwm-22" vertex="1">
          <mxGeometry y="30" width="250" height="30" as="geometry" />
        </mxCell>
        <mxCell id="eLRlmK2aRcmRUZ2P7bwm-24" value="PK" style="shape=partialRectangle;overflow=hidden;connectable=0;fillColor=none;top=0;left=0;bottom=0;right=0;fontStyle=1;" parent="eLRlmK2aRcmRUZ2P7bwm-23" vertex="1">
          <mxGeometry width="30" height="30" as="geometry">
            <mxRectangle width="30" height="30" as="alternateBounds" />
          </mxGeometry>
        </mxCell>
        <mxCell id="eLRlmK2aRcmRUZ2P7bwm-25" value="Auftragsdaten_ID int not null" style="shape=partialRectangle;overflow=hidden;connectable=0;fillColor=none;top=0;left=0;bottom=0;right=0;align=left;spacingLeft=6;fontStyle=5;" parent="eLRlmK2aRcmRUZ2P7bwm-23" vertex="1">
          <mxGeometry x="30" width="220" height="30" as="geometry">
            <mxRectangle width="220" height="30" as="alternateBounds" />
          </mxGeometry>
        </mxCell>
        <mxCell id="eLRlmK2aRcmRUZ2P7bwm-26" value="" style="shape=partialRectangle;collapsible=0;dropTarget=0;pointerEvents=0;fillColor=none;points=[[0,0.5],[1,0.5]];portConstraint=eastwest;top=0;left=0;right=0;bottom=0;" parent="eLRlmK2aRcmRUZ2P7bwm-22" vertex="1">
          <mxGeometry y="60" width="250" height="130" as="geometry" />
        </mxCell>
        <mxCell id="eLRlmK2aRcmRUZ2P7bwm-27" value="&#xa;FK&#xa;FK" style="shape=partialRectangle;overflow=hidden;connectable=0;fillColor=none;top=0;left=0;bottom=0;right=0;" parent="eLRlmK2aRcmRUZ2P7bwm-26" vertex="1">
          <mxGeometry width="30" height="130" as="geometry">
            <mxRectangle width="30" height="130" as="alternateBounds" />
          </mxGeometry>
        </mxCell>
        <mxCell id="eLRlmK2aRcmRUZ2P7bwm-28" value="Auftragsname varchar&#xa;Auftragsanfang float&#xa;Auftragsende float&#xa;AuftragsMaximalkosten float&#xa;Gebäude_ID int&#xa;Kunden_ID int&#xa;&#xa;&#xa;" style="shape=partialRectangle;overflow=hidden;connectable=0;fillColor=none;top=0;left=0;bottom=0;right=0;align=left;spacingLeft=6;" parent="eLRlmK2aRcmRUZ2P7bwm-26" vertex="1">
          <mxGeometry x="30" width="220" height="130" as="geometry">
            <mxRectangle width="220" height="130" as="alternateBounds" />
          </mxGeometry>
        </mxCell>
        <mxCell id="eLRlmK2aRcmRUZ2P7bwm-68" value="Projekt" style="shape=table;startSize=30;container=1;collapsible=1;childLayout=tableLayout;fixedRows=1;rowLines=0;fontStyle=1;align=center;resizeLast=1;" parent="1" vertex="1">
          <mxGeometry x="890" y="55" width="250" height="200" as="geometry" />
        </mxCell>
        <mxCell id="eLRlmK2aRcmRUZ2P7bwm-69" value="" style="shape=partialRectangle;collapsible=0;dropTarget=0;pointerEvents=0;fillColor=none;points=[[0,0.5],[1,0.5]];portConstraint=eastwest;top=0;left=0;right=0;bottom=1;" parent="eLRlmK2aRcmRUZ2P7bwm-68" vertex="1">
          <mxGeometry y="30" width="250" height="30" as="geometry" />
        </mxCell>
        <mxCell id="eLRlmK2aRcmRUZ2P7bwm-70" value="PK" style="shape=partialRectangle;overflow=hidden;connectable=0;fillColor=none;top=0;left=0;bottom=0;right=0;fontStyle=1;" parent="eLRlmK2aRcmRUZ2P7bwm-69" vertex="1">
          <mxGeometry width="30" height="30" as="geometry">
            <mxRectangle width="30" height="30" as="alternateBounds" />
          </mxGeometry>
        </mxCell>
        <mxCell id="eLRlmK2aRcmRUZ2P7bwm-71" value="Projekt_ID int not null" style="shape=partialRectangle;overflow=hidden;connectable=0;fillColor=none;top=0;left=0;bottom=0;right=0;align=left;spacingLeft=6;fontStyle=5;" parent="eLRlmK2aRcmRUZ2P7bwm-69" vertex="1">
          <mxGeometry x="30" width="220" height="30" as="geometry">
            <mxRectangle width="220" height="30" as="alternateBounds" />
          </mxGeometry>
        </mxCell>
        <mxCell id="eLRlmK2aRcmRUZ2P7bwm-72" value="" style="shape=partialRectangle;collapsible=0;dropTarget=0;pointerEvents=0;fillColor=none;points=[[0,0.5],[1,0.5]];portConstraint=eastwest;top=0;left=0;right=0;bottom=0;" parent="eLRlmK2aRcmRUZ2P7bwm-68" vertex="1">
          <mxGeometry y="60" width="250" height="140" as="geometry" />
        </mxCell>
        <mxCell id="eLRlmK2aRcmRUZ2P7bwm-73" value="&#xa;&#xa;&#xa;FK&#xa;FK&#xa;FK&#xa;&#xa;" style="shape=partialRectangle;overflow=hidden;connectable=0;fillColor=none;top=0;left=0;bottom=0;right=0;" parent="eLRlmK2aRcmRUZ2P7bwm-72" vertex="1">
          <mxGeometry width="30" height="140" as="geometry">
            <mxRectangle width="30" height="140" as="alternateBounds" />
          </mxGeometry>
        </mxCell>
        <mxCell id="eLRlmK2aRcmRUZ2P7bwm-74" value="&#xa;&#xa;&#xa;&#xa;Lagernummer_ID int&#xa;Auftragsdaten_ID int&#xa;Grundriss_ID int&#xa;&#xa;&#xa;&#xa;" style="shape=partialRectangle;overflow=hidden;connectable=0;fillColor=none;top=0;left=0;bottom=0;right=0;align=left;spacingLeft=6;" parent="eLRlmK2aRcmRUZ2P7bwm-72" vertex="1">
          <mxGeometry x="30" width="220" height="140" as="geometry">
            <mxRectangle width="220" height="140" as="alternateBounds" />
          </mxGeometry>
        </mxCell>
        <mxCell id="eLRlmK2aRcmRUZ2P7bwm-78" value="" style="edgeStyle=entityRelationEdgeStyle;endArrow=ERzeroToMany;startArrow=ERone;endFill=1;startFill=0;" parent="1" source="eLRlmK2aRcmRUZ2P7bwm-12" target="eLRlmK2aRcmRUZ2P7bwm-72" edge="1">
          <mxGeometry width="100" height="100" relative="1" as="geometry">
            <mxPoint x="410" y="70" as="sourcePoint" />
            <mxPoint x="435" y="490" as="targetPoint" />
          </mxGeometry>
        </mxCell>
        <mxCell id="wp8QwnEku8OI3jybZzaY-8" value="1" style="edgeLabel;html=1;align=center;verticalAlign=middle;resizable=0;points=[];" parent="eLRlmK2aRcmRUZ2P7bwm-78" vertex="1" connectable="0">
          <mxGeometry x="0.6111" y="-1" relative="1" as="geometry">
            <mxPoint x="-21" y="-14" as="offset" />
          </mxGeometry>
        </mxCell>
        <mxCell id="wp8QwnEku8OI3jybZzaY-10" value="1" style="edgeLabel;html=1;align=center;verticalAlign=middle;resizable=0;points=[];" parent="eLRlmK2aRcmRUZ2P7bwm-78" vertex="1" connectable="0">
          <mxGeometry x="-0.2222" y="2" relative="1" as="geometry">
            <mxPoint x="72" y="-17" as="offset" />
          </mxGeometry>
        </mxCell>
        <mxCell id="eLRlmK2aRcmRUZ2P7bwm-79" value="" style="edgeStyle=entityRelationEdgeStyle;endArrow=ERzeroToMany;startArrow=ERone;endFill=1;startFill=0;entryX=1;entryY=0.679;entryDx=0;entryDy=0;entryPerimeter=0;exitX=1;exitY=0.25;exitDx=0;exitDy=0;" parent="1" source="eLRlmK2aRcmRUZ2P7bwm-1" target="eLRlmK2aRcmRUZ2P7bwm-72" edge="1">
          <mxGeometry width="100" height="100" relative="1" as="geometry">
            <mxPoint x="420" y="80" as="sourcePoint" />
            <mxPoint x="445" y="500" as="targetPoint" />
          </mxGeometry>
        </mxCell>
        <mxCell id="wp8QwnEku8OI3jybZzaY-13" value="n" style="edgeLabel;html=1;align=center;verticalAlign=middle;resizable=0;points=[];" parent="eLRlmK2aRcmRUZ2P7bwm-79" vertex="1" connectable="0">
          <mxGeometry x="-0.7189" y="-2" relative="1" as="geometry">
            <mxPoint x="-12" y="-3" as="offset" />
          </mxGeometry>
        </mxCell>
        <mxCell id="wp8QwnEku8OI3jybZzaY-14" value="1" style="edgeLabel;html=1;align=center;verticalAlign=middle;resizable=0;points=[];" parent="eLRlmK2aRcmRUZ2P7bwm-79" vertex="1" connectable="0">
          <mxGeometry x="0.3622" relative="1" as="geometry">
            <mxPoint x="-10" y="-43" as="offset" />
          </mxGeometry>
        </mxCell>
        <mxCell id="eLRlmK2aRcmRUZ2P7bwm-82" value="Gebäude" style="shape=table;startSize=30;container=1;collapsible=1;childLayout=tableLayout;fixedRows=1;rowLines=0;fontStyle=1;align=center;resizeLast=1;" parent="1" vertex="1">
          <mxGeometry x="890" y="860" width="250" height="170" as="geometry">
            <mxRectangle x="-20" y="380" width="90" height="30" as="alternateBounds" />
          </mxGeometry>
        </mxCell>
        <mxCell id="eLRlmK2aRcmRUZ2P7bwm-83" value="" style="shape=partialRectangle;collapsible=0;dropTarget=0;pointerEvents=0;fillColor=none;points=[[0,0.5],[1,0.5]];portConstraint=eastwest;top=0;left=0;right=0;bottom=1;" parent="eLRlmK2aRcmRUZ2P7bwm-82" vertex="1">
          <mxGeometry y="30" width="250" height="30" as="geometry" />
        </mxCell>
        <mxCell id="eLRlmK2aRcmRUZ2P7bwm-84" value="PK" style="shape=partialRectangle;overflow=hidden;connectable=0;fillColor=none;top=0;left=0;bottom=0;right=0;fontStyle=1;" parent="eLRlmK2aRcmRUZ2P7bwm-83" vertex="1">
          <mxGeometry width="30" height="30" as="geometry">
            <mxRectangle width="30" height="30" as="alternateBounds" />
          </mxGeometry>
        </mxCell>
        <mxCell id="eLRlmK2aRcmRUZ2P7bwm-85" value="Gebäude_ID int not null" style="shape=partialRectangle;overflow=hidden;connectable=0;fillColor=none;top=0;left=0;bottom=0;right=0;align=left;spacingLeft=6;fontStyle=5;" parent="eLRlmK2aRcmRUZ2P7bwm-83" vertex="1">
          <mxGeometry x="30" width="220" height="30" as="geometry">
            <mxRectangle width="220" height="30" as="alternateBounds" />
          </mxGeometry>
        </mxCell>
        <mxCell id="eLRlmK2aRcmRUZ2P7bwm-86" value="" style="shape=partialRectangle;collapsible=0;dropTarget=0;pointerEvents=0;fillColor=none;points=[[0,0.5],[1,0.5]];portConstraint=eastwest;top=0;left=0;right=0;bottom=0;" parent="eLRlmK2aRcmRUZ2P7bwm-82" vertex="1">
          <mxGeometry y="60" width="250" height="110" as="geometry" />
        </mxCell>
        <mxCell id="eLRlmK2aRcmRUZ2P7bwm-87" value="FK&#xa;&#xa;&#xa;" style="shape=partialRectangle;overflow=hidden;connectable=0;fillColor=none;top=0;left=0;bottom=0;right=0;" parent="eLRlmK2aRcmRUZ2P7bwm-86" vertex="1">
          <mxGeometry width="30" height="110" as="geometry">
            <mxRectangle width="30" height="110" as="alternateBounds" />
          </mxGeometry>
        </mxCell>
        <mxCell id="eLRlmK2aRcmRUZ2P7bwm-88" value="Adress_ID int&#xa;Hausfarbe varchar&#xa;Zimmeranzahl int&#xa;" style="shape=partialRectangle;overflow=hidden;connectable=0;fillColor=none;top=0;left=0;bottom=0;right=0;align=left;spacingLeft=6;" parent="eLRlmK2aRcmRUZ2P7bwm-86" vertex="1">
          <mxGeometry x="30" width="220" height="110" as="geometry">
            <mxRectangle width="220" height="110" as="alternateBounds" />
          </mxGeometry>
        </mxCell>
        <mxCell id="eLRlmK2aRcmRUZ2P7bwm-93" value="" style="edgeStyle=entityRelationEdgeStyle;endArrow=ERzeroToMany;startArrow=ERone;endFill=1;startFill=0;entryX=1;entryY=0.641;entryDx=0;entryDy=0;entryPerimeter=0;exitX=0;exitY=0.5;exitDx=0;exitDy=0;" parent="1" source="eLRlmK2aRcmRUZ2P7bwm-26" target="eLRlmK2aRcmRUZ2P7bwm-86" edge="1">
          <mxGeometry width="100" height="100" relative="1" as="geometry">
            <mxPoint x="350" y="865" as="sourcePoint" />
            <mxPoint x="360" y="520" as="targetPoint" />
          </mxGeometry>
        </mxCell>
        <mxCell id="wp8QwnEku8OI3jybZzaY-4" value="1" style="edgeLabel;html=1;align=center;verticalAlign=middle;resizable=0;points=[];" parent="eLRlmK2aRcmRUZ2P7bwm-93" vertex="1" connectable="0">
          <mxGeometry x="0.5539" y="1" relative="1" as="geometry">
            <mxPoint x="100" y="-119" as="offset" />
          </mxGeometry>
        </mxCell>
        <mxCell id="wp8QwnEku8OI3jybZzaY-5" value="n" style="edgeLabel;html=1;align=center;verticalAlign=middle;resizable=0;points=[];" parent="eLRlmK2aRcmRUZ2P7bwm-93" vertex="1" connectable="0">
          <mxGeometry x="-0.6422" relative="1" as="geometry">
            <mxPoint x="-88" y="158" as="offset" />
          </mxGeometry>
        </mxCell>
        <mxCell id="eLRlmK2aRcmRUZ2P7bwm-94" value="" style="edgeStyle=entityRelationEdgeStyle;endArrow=ERzeroToMany;startArrow=ERone;endFill=1;startFill=0;entryX=1.01;entryY=0.645;entryDx=0;entryDy=0;entryPerimeter=0;" parent="1" target="eLRlmK2aRcmRUZ2P7bwm-26" edge="1">
          <mxGeometry width="100" height="100" relative="1" as="geometry">
            <mxPoint x="1610" y="400" as="sourcePoint" />
            <mxPoint x="650" y="510" as="targetPoint" />
          </mxGeometry>
        </mxCell>
        <mxCell id="wp8QwnEku8OI3jybZzaY-6" value="1" style="edgeLabel;html=1;align=center;verticalAlign=middle;resizable=0;points=[];" parent="eLRlmK2aRcmRUZ2P7bwm-94" vertex="1" connectable="0">
          <mxGeometry x="0.8063" y="-2" relative="1" as="geometry">
            <mxPoint x="-6" y="-13" as="offset" />
          </mxGeometry>
        </mxCell>
        <mxCell id="wp8QwnEku8OI3jybZzaY-7" value="n" style="edgeLabel;html=1;align=center;verticalAlign=middle;resizable=0;points=[];" parent="eLRlmK2aRcmRUZ2P7bwm-94" vertex="1" connectable="0">
          <mxGeometry x="-0.9279" y="-2" relative="1" as="geometry">
            <mxPoint x="-3" y="13" as="offset" />
          </mxGeometry>
        </mxCell>
        <mxCell id="wp8QwnEku8OI3jybZzaY-1" value="" style="edgeStyle=entityRelationEdgeStyle;endArrow=ERzeroToMany;startArrow=ERone;endFill=1;startFill=0;exitX=0.991;exitY=0.511;exitDx=0;exitDy=0;exitPerimeter=0;" parent="1" source="eLRlmK2aRcmRUZ2P7bwm-83" target="eLRlmK2aRcmRUZ2P7bwm-5" edge="1">
          <mxGeometry width="100" height="100" relative="1" as="geometry">
            <mxPoint x="1150" y="900" as="sourcePoint" />
            <mxPoint x="1200" y="530" as="targetPoint" />
          </mxGeometry>
        </mxCell>
        <mxCell id="wp8QwnEku8OI3jybZzaY-2" value="1" style="edgeLabel;html=1;align=center;verticalAlign=middle;resizable=0;points=[];" parent="wp8QwnEku8OI3jybZzaY-1" vertex="1" connectable="0">
          <mxGeometry x="0.8018" y="3" relative="1" as="geometry">
            <mxPoint x="-7" y="9" as="offset" />
          </mxGeometry>
        </mxCell>
        <mxCell id="wp8QwnEku8OI3jybZzaY-3" value="1" style="edgeLabel;html=1;align=center;verticalAlign=middle;resizable=0;points=[];" parent="wp8QwnEku8OI3jybZzaY-1" vertex="1" connectable="0">
          <mxGeometry x="-0.7905" y="-1" relative="1" as="geometry">
            <mxPoint x="-11" as="offset" />
          </mxGeometry>
        </mxCell>
        <mxCell id="RuZAFOrqdAqUSRGnz0yE-1" value="Adresse" style="shape=table;startSize=30;container=1;collapsible=1;childLayout=tableLayout;fixedRows=1;rowLines=0;fontStyle=1;align=center;resizeLast=1;" vertex="1" parent="1">
          <mxGeometry x="910" y="650" width="250" height="170" as="geometry">
            <mxRectangle x="-20" y="380" width="90" height="30" as="alternateBounds" />
          </mxGeometry>
        </mxCell>
        <mxCell id="RuZAFOrqdAqUSRGnz0yE-2" value="" style="shape=partialRectangle;collapsible=0;dropTarget=0;pointerEvents=0;fillColor=none;points=[[0,0.5],[1,0.5]];portConstraint=eastwest;top=0;left=0;right=0;bottom=1;" vertex="1" parent="RuZAFOrqdAqUSRGnz0yE-1">
          <mxGeometry y="30" width="250" height="30" as="geometry" />
        </mxCell>
        <mxCell id="RuZAFOrqdAqUSRGnz0yE-3" value="PK" style="shape=partialRectangle;overflow=hidden;connectable=0;fillColor=none;top=0;left=0;bottom=0;right=0;fontStyle=1;" vertex="1" parent="RuZAFOrqdAqUSRGnz0yE-2">
          <mxGeometry width="30" height="30" as="geometry">
            <mxRectangle width="30" height="30" as="alternateBounds" />
          </mxGeometry>
        </mxCell>
        <mxCell id="RuZAFOrqdAqUSRGnz0yE-4" value="Adress_ID int not null" style="shape=partialRectangle;overflow=hidden;connectable=0;fillColor=none;top=0;left=0;bottom=0;right=0;align=left;spacingLeft=6;fontStyle=5;" vertex="1" parent="RuZAFOrqdAqUSRGnz0yE-2">
          <mxGeometry x="30" width="220" height="30" as="geometry">
            <mxRectangle width="220" height="30" as="alternateBounds" />
          </mxGeometry>
        </mxCell>
        <mxCell id="RuZAFOrqdAqUSRGnz0yE-5" value="" style="shape=partialRectangle;collapsible=0;dropTarget=0;pointerEvents=0;fillColor=none;points=[[0,0.5],[1,0.5]];portConstraint=eastwest;top=0;left=0;right=0;bottom=0;" vertex="1" parent="RuZAFOrqdAqUSRGnz0yE-1">
          <mxGeometry y="60" width="250" height="110" as="geometry" />
        </mxCell>
        <mxCell id="RuZAFOrqdAqUSRGnz0yE-6" value="" style="shape=partialRectangle;overflow=hidden;connectable=0;fillColor=none;top=0;left=0;bottom=0;right=0;" vertex="1" parent="RuZAFOrqdAqUSRGnz0yE-5">
          <mxGeometry width="30" height="110" as="geometry">
            <mxRectangle width="30" height="110" as="alternateBounds" />
          </mxGeometry>
        </mxCell>
        <mxCell id="RuZAFOrqdAqUSRGnz0yE-7" value="Ort varchar&#xa;PLZ varchar&#xa;Straße varchar&#xa;Hausnummer varchar&#xa;" style="shape=partialRectangle;overflow=hidden;connectable=0;fillColor=none;top=0;left=0;bottom=0;right=0;align=left;spacingLeft=6;" vertex="1" parent="RuZAFOrqdAqUSRGnz0yE-5">
          <mxGeometry x="30" width="220" height="110" as="geometry">
            <mxRectangle width="220" height="110" as="alternateBounds" />
          </mxGeometry>
        </mxCell>
        <mxCell id="RuZAFOrqdAqUSRGnz0yE-8" value="" style="edgeStyle=entityRelationEdgeStyle;endArrow=ERzeroToMany;startArrow=ERone;endFill=1;startFill=0;exitX=1.01;exitY=0.345;exitDx=0;exitDy=0;exitPerimeter=0;" edge="1" parent="1" source="eLRlmK2aRcmRUZ2P7bwm-86" target="RuZAFOrqdAqUSRGnz0yE-2">
          <mxGeometry width="100" height="100" relative="1" as="geometry">
            <mxPoint x="1180" y="980" as="sourcePoint" />
            <mxPoint x="1150" y="505" as="targetPoint" />
          </mxGeometry>
        </mxCell>
        <mxCell id="RuZAFOrqdAqUSRGnz0yE-9" value="n" style="edgeLabel;html=1;align=center;verticalAlign=middle;resizable=0;points=[];" vertex="1" connectable="0" parent="RuZAFOrqdAqUSRGnz0yE-8">
          <mxGeometry x="0.8018" y="3" relative="1" as="geometry">
            <mxPoint x="-7" y="9" as="offset" />
          </mxGeometry>
        </mxCell>
        <mxCell id="RuZAFOrqdAqUSRGnz0yE-10" value="1" style="edgeLabel;html=1;align=center;verticalAlign=middle;resizable=0;points=[];" vertex="1" connectable="0" parent="RuZAFOrqdAqUSRGnz0yE-8">
          <mxGeometry x="-0.7905" y="-1" relative="1" as="geometry">
            <mxPoint x="-11" as="offset" />
          </mxGeometry>
        </mxCell>
        <mxCell id="RuZAFOrqdAqUSRGnz0yE-13" value="" style="edgeStyle=entityRelationEdgeStyle;endArrow=ERzeroToMany;startArrow=ERone;endFill=1;startFill=0;" edge="1" parent="1" source="eLRlmK2aRcmRUZ2P7bwm-19" target="RuZAFOrqdAqUSRGnz0yE-2">
          <mxGeometry width="100" height="100" relative="1" as="geometry">
            <mxPoint x="1153" y="968" as="sourcePoint" />
            <mxPoint x="1170" y="705" as="targetPoint" />
          </mxGeometry>
        </mxCell>
        <mxCell id="RuZAFOrqdAqUSRGnz0yE-14" value="n" style="edgeLabel;html=1;align=center;verticalAlign=middle;resizable=0;points=[];" vertex="1" connectable="0" parent="RuZAFOrqdAqUSRGnz0yE-13">
          <mxGeometry x="0.8018" y="3" relative="1" as="geometry">
            <mxPoint x="1" y="-18" as="offset" />
          </mxGeometry>
        </mxCell>
        <mxCell id="RuZAFOrqdAqUSRGnz0yE-15" value="1" style="edgeLabel;html=1;align=center;verticalAlign=middle;resizable=0;points=[];" vertex="1" connectable="0" parent="RuZAFOrqdAqUSRGnz0yE-13">
          <mxGeometry x="-0.7905" y="-1" relative="1" as="geometry">
            <mxPoint x="-11" as="offset" />
          </mxGeometry>
        </mxCell>
      </root>
    </mxGraphModel>
  </diagram>
</mxfile>
